<svg width="49" height="48" viewBox="0 0 49 48" fill="none" xmlns="http://www.w3.org/2000/svg">
<path fill-rule="evenodd" clip-rule="evenodd" d="M24.5 24C26.7091 24 28.5 22.2091 28.5 20C28.5 17.7909 26.7091 16 24.5 16C22.2909 16 20.5 17.7909 20.5 20C20.5 22.2091 22.2909 24 24.5 24ZM24.5 28C28.9183 28 32.5 24.4183 32.5 20C32.5 15.5817 28.9183 12 24.5 12C20.0817 12 16.5 15.5817 16.5 20C16.5 24.4183 20.0817 28 24.5 28Z" fill="#808191"/>
<path fill-rule="evenodd" clip-rule="evenodd" d="M37.6177 39.0976C41.8343 35.4309 44.5 30.0267 44.5 24C44.5 12.9543 35.5457 4 24.5 4C13.4543 4 4.5 12.9543 4.5 24C4.5 30.0267 7.16569 35.4309 11.3823 39.0976C14.8939 42.1513 19.481 44 24.5 44C29.3325 44 33.7647 42.2861 37.2219 39.433C37.3553 39.3229 37.4872 39.2111 37.6177 39.0976ZM25.0158 39.9918C24.8445 39.9973 24.6726 40 24.5 40C24.4827 40 24.4655 40 24.4482 39.9999C24.2874 39.9994 24.1271 39.9965 23.9673 39.9913C21.2828 39.9035 18.7655 39.1543 16.5731 37.9015C18.4036 35.5264 21.2764 34 24.5 34C27.7236 34 30.5964 35.5264 32.4269 37.9015C30.2299 39.157 27.7067 39.9066 25.0158 39.9918ZM35.6248 35.4995C33.0664 32.1563 29.035 30 24.5 30C19.965 30 15.9336 32.1563 13.3752 35.4995C10.3689 32.5906 8.5 28.5136 8.5 24C8.5 15.1634 15.6634 8 24.5 8C33.3366 8 40.5 15.1634 40.5 24C40.5 28.5136 38.6311 32.5906 35.6248 35.4995Z" fill="#808191"/>
</svg>
