<svg width="49" height="48" viewBox="0 0 49 48" fill="none" xmlns="http://www.w3.org/2000/svg">
<path fill-rule="evenodd" clip-rule="evenodd" d="M6.5 4C7.60457 4 8.5 4.89543 8.5 6V38C8.5 39.1046 9.39543 40 10.5 40H42.5C43.6046 40 44.5 40.8954 44.5 42C44.5 43.1046 43.6046 44 42.5 44H10.5C7.18629 44 4.5 41.3137 4.5 38V6C4.5 4.89543 5.39543 4 6.5 4Z" fill="#808191"/>
<path fill-rule="evenodd" clip-rule="evenodd" d="M14.5 16C15.6046 16 16.5 16.8954 16.5 18V34C16.5 35.1046 15.6046 36 14.5 36C13.3954 36 12.5 35.1046 12.5 34V18C12.5 16.8954 13.3954 16 14.5 16Z" fill="#808191"/>
<path fill-rule="evenodd" clip-rule="evenodd" d="M22.5 28C23.6046 28 24.5 28.8954 24.5 30V34C24.5 35.1046 23.6046 36 22.5 36C21.3954 36 20.5 35.1046 20.5 34V30C20.5 28.8954 21.3954 28 22.5 28Z" fill="#808191"/>
<path fill-rule="evenodd" clip-rule="evenodd" d="M30.5 8C31.6046 8 32.5 8.89543 32.5 10V34C32.5 35.1046 31.6046 36 30.5 36C29.3954 36 28.5 35.1046 28.5 34V10C28.5 8.89543 29.3954 8 30.5 8Z" fill="#808191"/>
<path fill-rule="evenodd" clip-rule="evenodd" d="M38.5 20C39.6046 20 40.5 20.8954 40.5 22V34C40.5 35.1046 39.6046 36 38.5 36C37.3954 36 36.5 35.1046 36.5 34V22C36.5 20.8954 37.3954 20 38.5 20Z" fill="#808191"/>
</svg>
