<svg width="49" height="48" viewBox="0 0 49 48" fill="none" xmlns="http://www.w3.org/2000/svg">
<path d="M29.4995 21.9382C33.4461 21.4464 36.5001 18.0798 36.5001 14C36.5001 9.92016 33.4461 6.55363 29.4995 6.06181C31.367 8.1773 32.5001 10.9563 32.5001 14C32.5001 17.0437 31.367 19.8227 29.4995 21.9382Z" fill="#6F767E"/>
<path d="M40.5 40C40.5 41.1046 41.3954 42 42.5 42C43.6045 42 44.5 41.1046 44.5 40V36C44.5 30.6798 40.3453 26.33 35.1035 26.0179C37.2077 27.8814 38.8175 30.2907 39.7111 33.024C40.213 33.9011 40.5 34.917 40.5 36V40Z" fill="#6F767E"/>
<path fill-rule="evenodd" clip-rule="evenodd" d="M14.5 30C11.1863 30 8.5 32.6863 8.5 36V40C8.5 41.1046 7.60457 42 6.5 42C5.39543 42 4.5 41.1046 4.5 40V36C4.5 30.4772 8.97715 26 14.5 26H26.5C32.0228 26 36.5 30.4772 36.5 36V40C36.5 41.1046 35.6046 42 34.5 42C33.3954 42 32.5 41.1046 32.5 40V36C32.5 32.6863 29.8137 30 26.5 30H14.5Z" fill="#6F767E"/>
<path fill-rule="evenodd" clip-rule="evenodd" d="M20.5 10C18.2909 10 16.5 11.7909 16.5 14C16.5 16.2091 18.2909 18 20.5 18C22.7091 18 24.5 16.2091 24.5 14C24.5 11.7909 22.7091 10 20.5 10ZM12.5 14C12.5 9.58172 16.0817 6 20.5 6C24.9183 6 28.5 9.58172 28.5 14C28.5 18.4183 24.9183 22 20.5 22C16.0817 22 12.5 18.4183 12.5 14Z" fill="#6F767E"/>
</svg>
