<svg width="41" height="39" viewBox="0 0 41 39" fill="none" xmlns="http://www.w3.org/2000/svg">
<path fill-rule="evenodd" clip-rule="evenodd" d="M22.0149 4.74437L10.0149 7.74437C9.12459 7.96696 8.5 8.76692 8.5 9.68466V35H24.5V15V11V6.68466C24.5 5.38351 23.2772 4.4288 22.0149 4.74437ZM28.5 15V35H32.5V17C32.5 15.8954 31.6046 15 30.5 15H28.5ZM36.5 39H38.5C39.6046 39 40.5 38.1046 40.5 37C40.5 35.8954 39.6046 35 38.5 35H36.5V17C36.5 13.6863 33.8137 11 30.5 11H28.5V6.68466C28.5 2.78123 24.8317 -0.0829178 21.0448 0.863802L9.04479 3.8638C6.37378 4.53155 4.5 6.93145 4.5 9.68466V35H2.5C1.39543 35 0.5 35.8954 0.5 37C0.5 38.1046 1.39543 39 2.5 39H4.5H8.5H24.5H28.5H32.5H36.5Z" fill="#6F767E"/>
</svg>
