<svg width="39" height="43" viewBox="0 0 39 43" fill="none" xmlns="http://www.w3.org/2000/svg">
<path fill-rule="evenodd" clip-rule="evenodd" d="M24.5082 22.4832C30.747 18.8794 32.8845 10.898 29.2826 4.65608L31.3085 3.48584C35.5564 10.8471 33.0355 20.26 25.6778 24.5101L24.5082 22.4832Z" fill="#6C5DD3"/>
<path d="M31.0658 -1.07168e-05C33.9256 -1.08418e-05 36.244 2.31948 36.244 5.18072C36.244 8.04196 33.9256 10.3614 31.0658 10.3614C28.2059 10.3615 25.8876 8.04196 25.8876 5.18072C25.8876 2.31948 28.2059 -1.05918e-05 31.0658 -1.07168e-05Z" fill="#6C5DD3"/>
<path fill-rule="evenodd" clip-rule="evenodd" d="M17.6023 43C7.9987 43 0.191059 35.307 -7.54263e-07 25.7445C2.48064 27.0186 5.19418 27.8895 8.05803 28.2728C9.14592 32.5648 13.1223 35.747 17.8611 35.747C23.4378 35.747 27.9586 31.34 27.9586 25.9036C27.9586 25.1667 27.8755 24.4486 27.718 23.7579C30.2274 22.1287 32.0992 19.8575 33.2414 17.2877C34.4981 19.7121 35.2081 22.4659 35.2081 25.3855C35.2081 35.1137 27.3257 43 17.6023 43ZM32.2364 15.5893C29.0771 10.8745 23.702 7.77103 17.6023 7.77103C10.0611 7.77103 3.62733 12.5146 1.11925 19.1821C3.3411 20.6184 5.87128 21.6024 8.58561 22.0072C10.1341 18.5089 13.7043 16.0602 17.8611 16.0602C22.098 16.0602 25.7254 18.6041 27.2238 22.2105C29.6251 20.5413 31.3322 18.1985 32.2364 15.5893Z" fill="#6C5DD3"/>
</svg>
