<svg width="49" height="48" viewBox="0 0 49 48" fill="none" xmlns="http://www.w3.org/2000/svg">
<path fill-rule="evenodd" clip-rule="evenodd" d="M14.5 18C14.5 16.8954 15.3954 16 16.5 16H32.5C33.6046 16 34.5 16.8954 34.5 18C34.5 19.1046 33.6046 20 32.5 20H16.5C15.3954 20 14.5 19.1046 14.5 18Z" fill="#6F767E"/>
<path fill-rule="evenodd" clip-rule="evenodd" d="M14.5 26C14.5 24.8954 15.3954 24 16.5 24H24.5C25.6046 24 26.5 24.8954 26.5 26C26.5 27.1046 25.6046 28 24.5 28H16.5C15.3954 28 14.5 27.1046 14.5 26Z" fill="#6F767E"/>
<path fill-rule="evenodd" clip-rule="evenodd" d="M13.9393 34.9271C14.6581 34.3281 15.5643 34 16.5 34H38.5C39.6046 34 40.5 33.1046 40.5 32V12C40.5 10.8954 39.6046 10 38.5 10H10.5C9.39543 10 8.5 10.8954 8.5 12V39.4598L13.9393 34.9271ZM16.5 38H38.5C41.8137 38 44.5 35.3137 44.5 32V12C44.5 8.68629 41.8137 6 38.5 6H10.5C7.18629 6 4.5 8.68629 4.5 12V39.4598C4.5 42.8512 8.45542 44.7038 11.0607 42.5327L16.5 38Z" fill="#6F767E"/>
</svg>
