<svg width="49" height="48" viewBox="0 0 49 48" fill="none" xmlns="http://www.w3.org/2000/svg">
<path fill-rule="evenodd" clip-rule="evenodd" d="M16.5 10H12.5C11.3954 10 10.5 10.8954 10.5 12V16C10.5 17.1046 11.3954 18 12.5 18H16.5C17.6046 18 18.5 17.1046 18.5 16V12C18.5 10.8954 17.6046 10 16.5 10ZM12.5 6C9.18629 6 6.5 8.68629 6.5 12V16C6.5 19.3137 9.18629 22 12.5 22H16.5C19.8137 22 22.5 19.3137 22.5 16V12C22.5 8.68629 19.8137 6 16.5 6H12.5Z" fill="#808191"/>
<path fill-rule="evenodd" clip-rule="evenodd" d="M16.5 30H12.5C11.3954 30 10.5 30.8954 10.5 32V36C10.5 37.1046 11.3954 38 12.5 38H16.5C17.6046 38 18.5 37.1046 18.5 36V32C18.5 30.8954 17.6046 30 16.5 30ZM12.5 26C9.18629 26 6.5 28.6863 6.5 32V36C6.5 39.3137 9.18629 42 12.5 42H16.5C19.8137 42 22.5 39.3137 22.5 36V32C22.5 28.6863 19.8137 26 16.5 26H12.5Z" fill="#808191"/>
<path fill-rule="evenodd" clip-rule="evenodd" d="M36.5 10H32.5C31.3954 10 30.5 10.8954 30.5 12V16C30.5 17.1046 31.3954 18 32.5 18H36.5C37.6046 18 38.5 17.1046 38.5 16V12C38.5 10.8954 37.6046 10 36.5 10ZM32.5 6C29.1863 6 26.5 8.68629 26.5 12V16C26.5 19.3137 29.1863 22 32.5 22H36.5C39.8137 22 42.5 19.3137 42.5 16V12C42.5 8.68629 39.8137 6 36.5 6H32.5Z" fill="#808191"/>
<path fill-rule="evenodd" clip-rule="evenodd" d="M36.5 30H32.5C31.3954 30 30.5 30.8954 30.5 32V36C30.5 37.1046 31.3954 38 32.5 38H36.5C37.6046 38 38.5 37.1046 38.5 36V32C38.5 30.8954 37.6046 30 36.5 30ZM32.5 26C29.1863 26 26.5 28.6863 26.5 32V36C26.5 39.3137 29.1863 42 32.5 42H36.5C39.8137 42 42.5 39.3137 42.5 36V32C42.5 28.6863 39.8137 26 36.5 26H32.5Z" fill="#808191"/>
</svg>
